<svg xmlns="http://www.w3.org/2000/svg" xml:space="preserve" x="0px" y="0px" baseProfile="tiny" overflow="visible" version="1.2" viewBox="0 0 2048 830.5"><path fill="#FFF" d="M814.615 427.184c0 166.734-135.179 301.901-301.901 301.901-166.738 0-301.901-135.166-301.901-301.901 0-166.726 135.162-301.893 301.901-301.893 166.723.001 301.901 135.167 301.901 301.893z"/><path fill="#003764" d="M654.414 406.142c-48.02-32.636-109.499-19.346-141.825 29.723-26.888 41.013-67.584 46.117-83.259 46.117-51.417 0-86.498-36.141-96.925-73.519 0 0-.51-1.893-.643-2.32-4.099-15.624-5.135-23.045-5.135-39.623 0-89.336 91.731-188.853 223.737-188.853 135.237 0 212.635 102.947 232.634 160.178a71.87 71.87 0 0 1-1.052-3.042c-38.367-111.922-144.483-192.366-269.49-192.366-157.175 0-284.674 127.433-284.674 284.741 0 140.573 101.388 260.888 242.055 260.888 112.134 0 187.525-62.868 222.058-149.555 18.988-47.433 5.578-103.126-37.481-132.369z"/><path fill="#E4032E" d="M784.74 343.372c-16.681-55.833-94.578-165.706-234.377-165.706-132.006 0-223.737 99.517-223.737 188.853 0 16.579 1.036 23.999 5.135 39.623-1.716-6.843-2.591-13.654-2.591-20.316 0-93.066 93.16-157.532 188.939-157.532 129.69 0 234.796 105.11 234.796 234.746 0 101.62-58.495 189.641-143.442 231.891v.078c109.547-39.675 187.773-144.612 187.773-267.833 0-29.164-3.91-54.886-12.496-83.804z"/><g fill="#575757"><path d="M1092.283 525.073h-33.83V335.255H953.834v-30.383h138.449v220.201zm68.284-237.115h33.828v272.824h-33.828V287.958zM1343.885 286.391l83.945 120.595-26.937 18.48-57.008-82.693-56.383 84.887-27.563-18.481 83.946-122.788zm133.124 216.442c0 9.193-1.879 17.805-5.638 25.843-3.76 8.037-8.771 15.085-15.036 21.144-6.474 6.053-14.046 10.856-22.71 14.41-8.667 3.549-17.804 5.323-27.406 5.323-9.609 0-18.795-1.774-27.565-5.323-8.771-3.554-16.396-8.356-22.867-14.41-6.264-6.059-11.275-13.107-15.034-21.144-3.76-8.037-5.639-16.65-5.639-25.843 0-9.185 1.879-17.852 5.639-25.995 3.758-8.144 8.769-15.241 15.034-21.299 6.47-6.056 14.096-10.855 22.867-14.409 8.771-3.549 17.957-5.326 27.565-5.326 9.602 0 18.739 1.777 27.406 5.326 8.664 3.554 16.236 8.354 22.71 14.409 6.266 6.059 11.277 13.156 15.036 21.299 3.759 8.143 5.638 16.81 5.638 25.995zm-33.203-.314c0-10.229-3.758-19.051-11.276-26.464-7.518-7.411-16.396-11.12-26.624-11.12-10.234 0-19.059 3.709-26.468 11.12-7.416 7.413-11.121 16.236-11.121 26.464 0 10.234 3.705 19.005 11.121 26.312 7.409 7.31 16.234 10.965 26.468 10.965 10.227 0 19.105-3.655 26.624-10.965 7.517-7.307 11.276-16.077 11.276-26.312zm46.984-69.848h-33.828V287.958h33.828v52.935h39.155v33.516h-39.155v58.262zM1579.343 339.954V311.45h63.901v-26.625h36.02v26.625h60.767v28.504h-65.779l68.286 69.537-22.553 20.986-58.889-61.079-57.949 66.091-23.177-21.613 68.284-73.923h-68.911zm217.695 162.879c0 9.193-1.881 17.805-5.639 25.843-3.758 8.037-8.771 15.085-15.034 21.144-6.476 6.053-14.047 10.856-22.708 14.41-8.67 3.549-17.805 5.323-27.41 5.323-9.607 0-18.792-1.774-27.562-5.323-8.771-3.554-16.396-8.356-22.867-14.41-6.266-6.059-11.278-13.107-15.036-21.144-3.758-8.037-5.639-16.65-5.639-25.843 0-9.185 1.88-17.852 5.639-25.995 3.758-8.144 8.771-15.241 15.036-21.299 6.47-6.056 14.096-10.855 22.867-14.409 8.771-3.549 17.955-5.326 27.562-5.326 9.604 0 18.74 1.777 27.41 5.326 8.661 3.554 16.233 8.354 22.708 14.409 6.263 6.059 11.275 13.156 15.034 21.299 3.759 8.143 5.639 16.81 5.639 25.995zm-33.201-.314c0-10.229-3.758-19.051-11.278-26.464-7.517-7.411-16.396-11.12-26.625-11.12-10.234 0-19.056 3.709-26.467 11.12-7.413 7.413-11.12 16.236-11.12 26.464 0 10.234 3.707 19.005 11.12 26.312 7.411 7.31 16.233 10.965 26.467 10.965 10.229 0 19.108-3.655 26.625-10.965 7.519-7.307 11.278-16.077 11.278-26.312zm22.55-62.017v-62.019h-47.611v-29.131h47.611v-61.394h33.831v152.544h-33.831z"/></g></svg>